<svg xmlns="http://www.w3.org/2000/svg" viewBox="0 0 7 7" shape-rendering="crispEdges"><rect width="7" height="7" rx="1.2" fill="#1A1918"/><rect x="2.5" y="1" width="1" height="1" fill="#FFD23F"/><rect x="3.5" y="1" width="1" height="1" fill="#FFD23F"/><rect x="1.5" y="2" width="1" height="1" fill="#FFAE2B"/><rect x="2.5" y="2" width="1" height="1" fill="#FFAE2B"/><rect x="3.5" y="2" width="1" height="1" fill="#FFAE2B"/><rect x="4.5" y="2" width="1" height="1" fill="#FFAE2B"/><rect x="0.5" y="3" width="1" height="1" fill="#FF7323"/><rect x="1.5" y="3" width="1" height="1" fill="#FF7323"/><rect x="4.5" y="3" width="1" height="1" fill="#FF7323"/><rect x="5.5" y="3" width="1" height="1" fill="#FF7323"/><rect x="0.5" y="4" width="1" height="1" fill="#F4501E"/><rect x="1.5" y="4" width="1" height="1" fill="#F4501E"/><rect x="2.5" y="4" width="1" height="1" fill="#F4501E"/><rect x="3.5" y="4" width="1" height="1" fill="#F4501E"/><rect x="4.5" y="4" width="1" height="1" fill="#F4501E"/><rect x="5.5" y="4" width="1" height="1" fill="#F4501E"/><rect x="0.5" y="5" width="1" height="1" fill="#DB2F14"/><rect x="1.5" y="5" width="1" height="1" fill="#DB2F14"/><rect x="4.5" y="5" width="1" height="1" fill="#DB2F14"/><rect x="5.5" y="5" width="1" height="1" fill="#DB2F14"/></svg>
